<svg xmlns="http://www.w3.org/2000/svg" width="194" height="287" viewBox="0 0 194 287">
  <g id="Groupe_7" data-name="Groupe 7" transform="translate(-1017 -1781)">
    <g id="Groupe_6" data-name="Groupe 6" transform="translate(-3766 -5721)">
      <rect id="Rectangle_33" data-name="Rectangle 33" width="194" height="287" transform="translate(4783 7502)" fill="#fff"/>
    </g>
    <path id="Icon_metro-cross" data-name="Icon metro-cross" d="M128.7,104.189h0L90.082,65.572,128.7,26.957h0a3.987,3.987,0,0,0,0-5.624L110.456,3.09a3.988,3.988,0,0,0-5.624,0h0L66.215,41.706,27.6,3.09h0a3.988,3.988,0,0,0-5.624,0L3.733,21.332a3.987,3.987,0,0,0,0,5.624h0L42.348,65.572,3.733,104.188h0a3.986,3.986,0,0,0,0,5.624l18.242,18.241a3.987,3.987,0,0,0,5.624,0h0L66.215,89.439l38.615,38.616h0a3.986,3.986,0,0,0,5.624,0L128.7,109.813a3.986,3.986,0,0,0,0-5.624Z" transform="translate(1047.785 1858.928)"/>
  </g>
</svg>
