<?xml version="1.0" encoding="utf-8"?>
<!-- Generator: Adobe Illustrator 16.0.0, SVG Export Plug-In . SVG Version: 6.00 Build 0)  -->
<!DOCTYPE svg PUBLIC "-//W3C//DTD SVG 1.1//EN" "http://www.w3.org/Graphics/SVG/1.1/DTD/svg11.dtd">
<svg version="1.1" xmlns="http://www.w3.org/2000/svg" xmlns:xlink="http://www.w3.org/1999/xlink" x="0px" y="0px" width="400px"
	 height="400px" viewBox="0 0 400 400" enable-background="new 0 0 400 400" xml:space="preserve">
<g id="Calque_1" display="none">
	<rect x="-6" y="-3" display="inline" fill="#200018" width="407" height="404"/>
</g>
<g id="Calque_1_-_copie_3" display="none">
	<defs>
		<path id="SVGID_1_" d="M82.86,217.455l9.759,19.572l-9.795,19.285l-59.96-118.055h20.515l39.445,79.274L82.86,217.455z
			 M142.782,138.257L98.356,225.73l-9.841-19.627l33.757-67.846H142.782z M241.789,195.912c0,31.917-24.454,57.657-67.647,57.657
			h-39.646v-16.475h44.575c25.84,0,43.789-18.361,43.789-41.184c0-22.821-17.948-41.181-43.789-41.181h-44.575v-16.471h39.646
			C218.319,138.257,241.789,163.993,241.789,195.912z M303.888,137.083v16.53c-24.637,2.302-43.521,20.206-43.521,42.297
			c0,22.092,18.884,39.995,43.521,42.297v16.531c-34.949-2.398-62.454-27.811-62.454-58.829
			C241.434,164.893,268.938,139.481,303.888,137.083z M377.137,195.91c0,31.018-27.505,56.43-62.451,58.829v-16.531
			c24.637-2.303,43.521-20.205,43.521-42.297c0-22.088-18.884-39.995-43.521-42.297v-16.53
			C349.632,139.481,377.137,164.893,377.137,195.91z"/>
	</defs>
	<linearGradient id="SVGID_2_" gradientUnits="userSpaceOnUse" x1="22.8638" y1="196.6973" x2="377.1367" y2="196.6973">
		<stop  offset="0" style="stop-color:#F8004A"/>
		<stop  offset="0.0726" style="stop-color:#F80348"/>
		<stop  offset="0.1267" style="stop-color:#F90D40"/>
		<stop  offset="0.1748" style="stop-color:#FA1D34"/>
		<stop  offset="0.2195" style="stop-color:#FC3323"/>
		<stop  offset="0.2614" style="stop-color:#FE500D"/>
		<stop  offset="0.2813" style="stop-color:#FF6100"/>
		<stop  offset="0.3335" style="stop-color:#FF8400"/>
		<stop  offset="0.4487" style="stop-color:#FFDC00"/>
		<stop  offset="0.4917" style="stop-color:#FFFF00"/>
		<stop  offset="0.5094" style="stop-color:#F9FF00"/>
		<stop  offset="0.533" style="stop-color:#E8FF00"/>
		<stop  offset="0.56" style="stop-color:#CCFF00"/>
		<stop  offset="0.5895" style="stop-color:#A5FF00"/>
		<stop  offset="0.6211" style="stop-color:#73FF00"/>
		<stop  offset="0.6538" style="stop-color:#37FF00"/>
		<stop  offset="0.6703" style="stop-color:#16FF00"/>
		<stop  offset="0.6887" style="stop-color:#16FE07"/>
		<stop  offset="0.7146" style="stop-color:#16FD19"/>
		<stop  offset="0.7452" style="stop-color:#16FA38"/>
		<stop  offset="0.7793" style="stop-color:#16F762"/>
		<stop  offset="0.8163" style="stop-color:#17F299"/>
		<stop  offset="0.8551" style="stop-color:#17ECDA"/>
		<stop  offset="0.875" style="stop-color:#17E9FF"/>
	</linearGradient>
	<use xlink:href="#SVGID_1_"  display="inline" overflow="visible" fill="url(#SVGID_2_)"/>
	<clipPath id="SVGID_3_" display="inline">
		<use xlink:href="#SVGID_1_"  overflow="visible"/>
	</clipPath>
</g>
<g id="Calque_1_-_copie_4" display="none">
	<defs>
		<path id="SVGID_4_" d="M80.296,216.972l10.133,20.326l-10.172,20.026L18,134.739h21.302l40.956,82.318L80.296,216.972z
			 M142.515,134.739l-46.129,90.826l-10.218-20.377l35.051-70.449H142.515z M245.318,194.609c0,33.138-25.393,59.867-70.242,59.867
			H133.91v-17.109h46.284c26.832,0,45.466-19.067,45.466-42.766c0-23.69-18.635-42.753-45.466-42.753H133.91v-17.108h41.166
			C220.949,134.739,245.318,161.462,245.318,194.609z M309.795,133.523v17.16c-25.578,2.396-45.186,20.981-45.186,43.917
			c0,22.945,19.607,41.533,45.186,43.921v17.169c-36.289-2.492-64.844-28.877-64.844-61.09
			C244.951,162.395,273.506,136.014,309.795,133.523z M385.854,194.601c0,32.213-28.559,58.598-64.846,61.09v-17.169
			c25.58-2.388,45.188-20.976,45.188-43.921c0-22.928-19.607-41.521-45.188-43.917v-17.16
			C357.295,136.014,385.854,162.395,385.854,194.601z"/>
	</defs>
	<use xlink:href="#SVGID_4_"  display="inline" overflow="visible" fill="#FFFFFF"/>
	<clipPath id="SVGID_5_" display="inline">
		<use xlink:href="#SVGID_4_"  overflow="visible"/>
	</clipPath>
	<g display="inline" clip-path="url(#SVGID_5_)">
		<rect x="47.596" y="351.377" fill="none" width="116.216" height="44.027"/>
		<text transform="matrix(1 0 0 1 47.5957 386.7969)" fill="#FCFCFC" font-family="'LEMONMILK-Regular'" font-size="45">VDO</text>
	</g>
</g>
<g id="Calque_1_-_copie_5" display="none">
	<defs>
		<path id="SVGID_6_" d="M80.296,216.972l10.133,20.326l-10.172,20.026L18,134.739h21.302l40.956,82.318L80.296,216.972z
			 M142.515,134.739l-46.129,90.826l-10.218-20.377l35.051-70.449H142.515z M245.318,194.609c0,33.138-25.393,59.867-70.242,59.867
			H133.91v-17.109h46.284c26.832,0,45.466-19.067,45.466-42.766c0-23.69-18.635-42.753-45.466-42.753H133.91v-17.108h41.166
			C220.949,134.739,245.318,161.462,245.318,194.609z M309.795,133.523v17.16c-25.578,2.396-45.186,20.981-45.186,43.917
			c0,22.945,19.607,41.533,45.186,43.921v17.169c-36.289-2.492-64.844-28.877-64.844-61.09
			C244.951,162.395,273.506,136.014,309.795,133.523z M385.854,194.601c0,32.213-28.559,58.598-64.846,61.09v-17.169
			c25.58-2.388,45.188-20.976,45.188-43.921c0-22.928-19.607-41.521-45.188-43.917v-17.16
			C357.295,136.014,385.854,162.395,385.854,194.601z"/>
	</defs>
	<use xlink:href="#SVGID_6_"  display="inline" overflow="visible" fill="#191919"/>
	<clipPath id="SVGID_7_" display="inline">
		<use xlink:href="#SVGID_6_"  overflow="visible"/>
	</clipPath>
	<g display="inline" clip-path="url(#SVGID_7_)">
		<rect x="47.596" y="351.377" fill="none" width="116.216" height="44.027"/>
		<text transform="matrix(1 0 0 1 47.5957 386.7969)" fill="#FCFCFC" font-family="'LEMONMILK-Regular'" font-size="45">VDO</text>
	</g>
</g>
<g id="Calque_1_-_copie_6">
	<defs>
		<path id="SVGID_8_" d="M102.942,221.585l12.353,24.778l-12.4,24.413L27,121.339h25.968l49.928,100.35L102.942,221.585z
			 M178.79,121.339L122.556,232.06L110.1,207.22l42.729-85.881H178.79z M288.112,194.323c0,40.397-30.955,72.98-85.629,72.98H152.3
			v-20.856h56.421c32.71,0,55.427-23.244,55.427-52.134c0-28.879-22.717-52.119-55.427-52.119H152.3v-20.856h50.183
			C258.405,121.339,288.112,153.916,288.112,194.323z M361.847,151.145l-17.921,10.785c-16.171-21.205-46.055-26.93-70.015-12.512
			c-23.968,14.421-32.907,43.511-21.733,67.723l-17.937,10.788c-16.786-33.784-4.481-75.718,29.168-95.965
			C297.046,111.721,339.857,120.492,361.847,151.145z M338.688,257.063c-33.65,20.245-76.465,11.475-98.455-19.177l17.933-10.793
			c16.16,21.212,46.05,26.938,70.018,12.516c23.949-14.412,32.896-43.505,21.733-67.723l17.923-10.786
			C384.623,194.881,372.324,236.819,338.688,257.063z"/>
	</defs>
	
		<linearGradient id="SVGID_9_" gradientUnits="userSpaceOnUse" x1="101.1914" y1="277.1807" x2="393.6797" y2="277.1807" gradientTransform="matrix(0.4883 0.8114 -0.8568 0.5156 326.2722 -170.5889)">
		<stop  offset="0" style="stop-color:#FF00C9"/>
		<stop  offset="0.129" style="stop-color:#E31CD0"/>
		<stop  offset="0.4087" style="stop-color:#9B65E0"/>
		<stop  offset="0.8149" style="stop-color:#28D7FB"/>
		<stop  offset="0.875" style="stop-color:#17E9FF"/>
	</linearGradient>
	<use xlink:href="#SVGID_8_"  overflow="visible" fill="url(#SVGID_9_)"/>
	<clipPath id="SVGID_10_">
		<use xlink:href="#SVGID_8_"  overflow="visible"/>
	</clipPath>
	<g clip-path="url(#SVGID_10_)">
		<rect x="47.596" y="351.377" fill="none" width="116.216" height="44.027"/>
		<text transform="matrix(1 0 0 1 47.5957 386.7969)" fill="#FCFCFC" font-family="'LEMONMILK-Regular'" font-size="45">VDO</text>
	</g>
</g>
</svg>
